<?xml version="1.0" standalone="no"?>
<!DOCTYPE svg PUBLIC "-//W3C//DTD SVG 20010904//EN"
 "http://www.w3.org/TR/2001/REC-SVG-20010904/DTD/svg10.dtd">
<svg version="1.0" xmlns="http://www.w3.org/2000/svg"
 width="575.000000pt" height="575.000000pt" viewBox="0 0 575.000000 575.000000"
 preserveAspectRatio="xMidYMid meet">
<metadata>
Created by potrace 1.16, written by Peter Selinger 2001-2019
</metadata>
<g transform="translate(0.000000,575.000000) scale(0.100000,-0.100000)"
fill="#000000" stroke="none">
<path d="M2822 3960 c-18 -11 -36 -30 -41 -42 -5 -13 -18 -44 -27 -70 l-18
-46 -101 -31 c-55 -16 -183 -56 -285 -87 -102 -31 -193 -60 -202 -65 -14 -8
-19 -4 -24 18 -17 79 -25 102 -39 113 -10 8 -15 31 -15 71 0 33 -4 59 -10 59
-6 0 -10 -27 -10 -60 0 -35 -6 -70 -14 -83 -14 -22 -30 -91 -41 -184 -7 -51
-8 -53 -90 -115 -135 -103 -624 -470 -855 -642 -208 -154 -526 -392 -852 -638
l-158 -118 0 -214 c0 -117 2 -215 5 -218 6 -6 167 53 455 167 107 42 272 105
365 140 94 35 217 82 274 104 l105 41 230 0 c181 1 236 4 256 15 39 23 47 18
54 -30 3 -25 9 -65 12 -90 l6 -46 -161 3 c-138 3 -161 1 -161 -12 0 -13 23
-15 159 -12 l158 3 27 -83 c37 -119 41 -122 66 -63 12 28 27 72 33 98 l12 48
157 -3 c135 -3 158 -1 158 12 0 13 -23 15 -156 12 l-157 -3 7 43 c3 24 9 86
12 139 l7 97 100 46 99 46 157 0 157 0 39 -40 39 -40 336 0 336 0 39 40 39 40
161 0 160 -1 95 -47 95 -47 6 -80 c3 -44 9 -106 13 -138 l8 -58 -161 3 c-138
3 -161 1 -161 -12 0 -13 25 -15 162 -15 l162 0 8 -36 c11 -53 48 -149 58 -149
10 0 47 96 58 149 l8 36 157 0 c133 0 157 2 157 15 0 13 -23 15 -156 12 l-156
-3 6 28 c3 15 8 56 11 91 4 34 9 62 11 62 3 0 21 -7 41 -15 28 -12 83 -15 260
-15 199 0 229 -2 271 -19 26 -11 126 -50 222 -86 96 -36 243 -93 325 -125 83
-33 247 -97 365 -144 l215 -84 3 221 c2 201 1 223 -15 238 -10 9 -83 66 -163
126 -80 60 -215 163 -300 228 -85 65 -218 166 -295 224 -77 57 -245 184 -373
280 -855 644 -770 575 -777 630 -12 92 -27 156 -41 178 -8 13 -14 49 -14 88 0
37 -4 65 -10 65 -6 0 -10 -27 -10 -62 0 -43 -5 -67 -16 -80 -9 -10 -22 -40
-28 -68 -6 -28 -16 -51 -21 -50 -11 1 -52 13 -375 115 l-215 68 -29 64 c-37
81 -73 113 -129 113 -24 0 -56 -9 -75 -20z m134 -18 c35 -27 57 -82 58 -142
l1 -55 -57 -3 c-57 -3 -58 -2 -58 24 0 24 3 26 28 21 15 -3 36 -9 47 -13 12
-4 17 -3 12 2 -5 5 -25 14 -45 19 -19 6 -37 16 -40 24 -5 14 8 13 73 -6 13 -3
16 -2 10 4 -5 5 -28 15 -51 21 -34 10 -49 9 -88 -4 -26 -9 -45 -18 -42 -21 2
-3 21 0 41 7 36 12 57 7 39 -9 -5 -5 -26 -14 -47 -21 -21 -7 -36 -14 -33 -17
3 -3 19 0 37 6 45 15 49 14 49 -14 0 -24 -3 -25 -56 -25 l-56 0 4 81 c3 77 5
82 36 110 38 34 103 40 138 11z m-196 -157 c0 -8 -4 -15 -10 -15 -5 0 -7 7 -4
15 4 8 8 15 10 15 2 0 4 -7 4 -15z m284 0 c3 -8 1 -15 -4 -15 -6 0 -10 7 -10
15 0 8 2 15 4 15 2 0 6 -7 10 -15z m-317 -18 c-3 -8 -18 -17 -34 -20 -15 -3
-36 -9 -45 -12 -12 -5 -18 -2 -18 7 0 8 20 21 48 30 51 16 57 16 49 -5z m433
-24 c0 -10 -8 -11 -27 -7 -52 13 -73 24 -73 38 0 12 7 12 50 -2 28 -9 50 -22
50 -29z m-400 7 c0 -5 -5 -10 -11 -10 -5 0 -7 5 -4 10 3 6 8 10 11 10 2 0 4
-4 4 -10z m-150 -15 c0 -9 -21 -20 -57 -30 -32 -9 -85 -25 -117 -36 -70 -22
-89 -24 -84 -7 3 7 58 29 124 50 141 43 134 42 134 23z m694 -23 c66 -21 122
-44 124 -50 6 -18 -12 -15 -140 25 -72 22 -118 42 -118 50 0 18 -2 18 134 -25z
m-540 -9 c2 -16 7 -50 10 -78 l5 -50 -19 65 c-22 73 -24 90 -11 90 5 0 12 -12
15 -27z m286 20 c-1 -5 -7 -35 -14 -68 l-14 -60 -1 52 c-1 55 6 83 20 83 5 0
9 -3 9 -7z m543 -102 c23 -9 27 -16 26 -48 -2 -29 -3 -31 -6 -11 -4 23 -14 29
-89 53 -50 16 -84 32 -84 40 0 11 13 10 63 -5 34 -10 74 -23 90 -29z m-1255
28 c-2 -7 -37 -21 -78 -33 l-75 -21 -5 -355 -5 -355 -3 367 -2 367 58 16 c31
9 62 18 67 20 23 8 46 4 43 -6z m-188 -63 c0 -7 -29 -35 -65 -62 -36 -27 -116
-87 -177 -134 -198 -152 -198 -153 -198 -127 1 6 31 35 67 62 36 28 132 100
212 162 80 61 149 112 154 112 4 1 7 -5 7 -13z m1601 -68 c31 -23 179 -136
330 -250 151 -115 346 -263 434 -330 88 -67 194 -147 236 -178 41 -30 109 -80
149 -110 41 -30 87 -64 102 -75 15 -11 100 -75 188 -143 l160 -123 -2 -197 -3
-197 -3 185 -3 185 -62 45 c-34 25 -108 81 -163 125 -56 44 -182 139 -279 210
-97 72 -250 186 -338 254 -89 68 -284 216 -434 328 -150 112 -278 209 -285
216 -7 7 -41 34 -75 60 -35 27 -63 55 -63 63 0 17 8 12 111 -68z m-134 -55
c-3 -10 -5 -4 -5 12 0 17 2 24 5 18 2 -7 2 -21 0 -30z m-727 -158 l0 -125 -40
0 -40 0 0 125 0 125 40 0 40 0 0 -125z m98 -2 l4 -123 -46 0 -46 0 0 126 0
125 43 -3 42 -3 3 -122z m629 -296 c-1 -73 -3 -10 -3 138 0 149 2 208 3 132 2
-76 2 -198 0 -270z m-1917 240 c0 -8 -95 -85 -211 -173 -245 -184 -239 -180
-239 -160 0 12 430 346 446 346 2 0 4 -6 4 -13z m1125 -361 l-7 -84 34 -4 c19
-2 55 -2 82 0 l48 4 -5 87 c-5 69 -4 75 3 31 4 -30 8 -72 9 -92 1 -35 -1 -38
-25 -38 -27 0 -27 0 7 -23 114 -77 61 -257 -76 -257 -56 0 -102 31 -126 86
-31 69 -11 135 54 174 30 19 31 20 8 20 -23 0 -24 1 -18 68 4 37 7 77 7 90 0
12 3 22 6 22 4 0 3 -38 -1 -84z m-1585 19 c0 -13 -92 -87 -308 -244 -45 -34
-84 -61 -87 -61 -3 0 -5 6 -5 14 0 7 44 44 97 82 53 38 142 104 197 147 55 42
101 77 103 77 2 0 3 -7 3 -15z m-420 -312 c0 -10 -20 -32 -43 -49 -23 -17
-111 -81 -194 -144 l-153 -112 -3 -197 -3 -196 1 210 0 210 195 147 c107 81
196 147 198 147 1 1 2 -7 2 -16z m3256 -511 c-7 -6 -65 18 -73 31 -6 10 13 7
50 -8 16 -7 17 5 19 146 l2 154 3 -159 c2 -87 1 -161 -1 -164z m-2336 28 c8 5
21 10 28 10 21 0 4 -17 -28 -28 l-30 -11 2 157 2 157 6 -147 c4 -128 7 -146
20 -138z m598 213 l3 -33 -90 0 -91 0 0 35 0 36 88 -3 87 -3 3 -32z m1282 2
l0 -35 -90 0 -90 0 0 35 0 35 90 0 90 0 0 -35z m-1470 -31 c0 -8 -165 -84
-181 -83 -8 0 24 20 71 44 80 42 110 52 110 39z m1583 -35 c91 -46 93 -47 85
-54 -6 -6 -188 82 -188 90 0 12 25 3 103 -36z m-3333 17 c0 -8 -39 -43 -86
-78 -47 -34 -106 -79 -132 -98 -26 -20 -64 -49 -84 -64 -30 -22 -38 -25 -38
-12 0 9 72 69 168 141 92 69 168 125 170 125 1 0 2 -6 2 -14z m5121 -98 c155
-118 183 -142 178 -155 -2 -6 -69 38 -149 99 -181 136 -192 146 -185 158 7 12
-1 17 156 -102z m-2276 92 c-4 -6 -135 -10 -360 -10 -225 0 -356 4 -360 10 -4
7 118 10 360 10 242 0 364 -3 360 -10z m-2005 -189 c0 -15 -397 -168 -407
-157 -7 6 20 18 157 69 52 20 127 49 165 65 80 34 85 35 85 23z m450 -1 c0 -6
-80 -10 -221 -10 -144 0 -218 3 -214 10 4 6 88 10 221 10 136 0 214 -4 214
-10z m2800 0 c0 -6 -73 -10 -200 -10 -127 0 -200 4 -200 10 0 6 73 10 200 10
127 0 200 -4 200 -10z m355 -110 c28 -10 136 -52 240 -93 105 -41 207 -81 228
-88 32 -11 51 -29 30 -29 -10 0 -226 82 -273 104 -19 8 -96 38 -170 66 -297
112 -370 142 -365 150 4 7 74 -18 310 -110z m-4025 -48 c0 -10 -22 -20 -234
-102 -87 -34 -161 -59 -164 -56 -9 9 -6 10 163 76 88 34 176 68 195 75 43 17
40 17 40 7z m-426 -172 c-5 -5 -74 -34 -154 -64 -80 -30 -153 -57 -162 -61
-10 -4 -18 -3 -18 2 0 5 39 24 88 43 48 18 123 47 167 65 77 31 99 35 79 15z
m5146 -51 c88 -34 160 -66 160 -71 0 -6 -8 -7 -17 -4 -128 48 -310 121 -317
127 -21 19 21 7 174 -52z"/>
<path d="M2821 2745 c-60 -51 -62 -132 -5 -186 20 -19 36 -24 79 -24 64 0 99
27 115 86 30 109 -103 196 -189 124z"/>
</g>
</svg>
